<svg width="15" height="20" viewBox="0 0 15 20" fill="none" xmlns="http://www.w3.org/2000/svg">
<path d="M0.0476464 13.4694C-0.434717 9.61158 2.90468 6.93878 2.90468 6.93878C2.90468 6.93878 3.16316 8.59079 3.721 9.38776C4.27886 10.1848 5.35365 10.6122 5.35365 10.6122C5.35365 10.6122 4.52032 8.16327 5.35365 5.30612C6.18699 2.44898 9.43507 0 9.43507 0C9.43507 0 9.8432 2.08617 10.6595 4.08163C11.8284 6.93878 14.3332 8.97959 14.7412 12.6531C15.1466 16.3041 12.2925 20 7.80275 20C3.31295 20 0.455925 16.7347 0.0476464 13.4694Z" fill="#EA5B24"/>
<path d="M5.728 16.5007C5.59479 15.3985 6.51703 14.6349 6.51703 14.6349C6.51703 14.6349 6.58842 15.1069 6.74247 15.3346C6.89654 15.5623 7.19337 15.6844 7.19337 15.6844C7.19337 15.6844 6.96322 14.9847 7.19337 14.1684C7.42351 13.3521 8.32053 12.6523 8.32053 12.6523C8.32053 12.6523 8.43325 13.2484 8.65869 13.8185C8.98149 14.6349 9.67326 15.2179 9.78592 16.2675C9.89789 17.3107 9.10968 18.3666 7.86973 18.3666C6.62978 18.3666 5.84076 17.4337 5.728 16.5007Z" fill="white"/>
</svg>
