<svg width="27" height="26" viewBox="0 0 27 26" fill="none" xmlns="http://www.w3.org/2000/svg">
<path d="M12.375 12.5339C12.375 13.0162 12.6326 13.4623 13.0503 13.7034C13.4683 13.9446 13.9829 13.9446 14.401 13.7034C14.8187 13.4623 15.0763 13.0163 15.0763 12.5339C15.0763 12.0513 14.8187 11.6055 14.401 11.3641C13.983 11.1229 13.4684 11.1229 13.0503 11.3641C12.6326 11.6055 12.375 12.0513 12.375 12.5339Z" fill="#EA5B24" stroke="#EA5B24" stroke-width="0.3"/>
<path d="M19.1095 12.5287C19.0804 12.9039 19.2091 13.2739 19.4648 13.5501C19.7205 13.8263 20.0796 13.9832 20.4559 13.9832C20.8321 13.9832 21.1915 13.8263 21.4472 13.5501C21.7026 13.2739 21.8315 12.9038 21.8025 12.5287C21.8315 12.1534 21.7026 11.7831 21.4472 11.5069C21.1915 11.231 20.8322 11.0739 20.4559 11.0739C20.0796 11.0739 19.7205 11.231 19.4648 11.5069C19.2091 11.7831 19.0804 12.1535 19.1095 12.5287Z" fill="#EA5B24" stroke="#EA5B24" stroke-width="0.3"/>
<path d="M5.68757 12.5287C5.65877 12.9039 5.78743 13.2739 6.04313 13.5501C6.29856 13.8263 6.65789 13.9832 7.03419 13.9832C7.41049 13.9832 7.76982 13.8263 8.02525 13.5501C8.28095 13.2739 8.40961 12.9038 8.38081 12.5287C8.40961 12.1534 8.28095 11.7831 8.02525 11.5069C7.76982 11.231 7.41049 11.0739 7.03419 11.0739C6.65789 11.0739 6.29856 11.231 6.04313 11.5069C5.78743 11.7831 5.65877 12.1535 5.68757 12.5287Z" fill="#EA5B24" stroke="#EA5B24" stroke-width="0.3"/>
<path d="M13.7254 23.9916C6.72324 23.9916 1 18.879 1 12.5445C1 6.20997 6.72366 1.09729 13.7254 1.09729C20.7271 1.09729 26.4507 6.20997 26.4507 12.5445C26.4413 15.2482 25.4072 17.8483 23.5567 19.8194C21.6031 22.448 17.9698 23.9917 13.7254 23.9917V23.9916ZM13.7254 2.43887C7.46307 2.43887 2.34227 6.95669 2.34227 12.5438C2.34227 18.131 7.463 22.6487 13.7254 22.6487C17.4955 22.6487 20.8639 21.2337 22.4797 19.0069L22.5521 18.9426V18.9429C24.1703 17.189 25.0809 14.8977 25.1084 12.5115C25.1084 6.9246 19.9876 2.40664 13.7253 2.40664L13.7254 2.43887Z" fill="#EA5B24" stroke="#EA5B24" stroke-width="0.3"/>
<path d="M21.2646 25.4025C19.4351 25.3812 17.6449 24.8704 16.0795 23.9234L15.4766 23.5859L16.1357 22.4442L16.7387 22.7817V22.782C18.7229 24.0314 21.1386 24.3956 23.4028 23.7867C22.7923 22.6003 22.4702 21.2865 22.4624 19.9523V19.277H23.8131V19.9523C23.8131 19.9523 23.8131 22.364 24.9545 23.5217L24.8178 24.5988C23.7043 25.1339 22.4839 25.409 21.2485 25.4026L21.2646 25.4025Z" fill="#EA5B24" stroke="#EA5B24" stroke-width="0.3"/>
</svg>