<svg width="22" height="23" viewBox="0 0 22 23" fill="none" xmlns="http://www.w3.org/2000/svg">
<path d="M16.6704 12.3401C15.6962 12.6648 14.9044 13.246 14.1352 13.8099L13.8161 14.0435C13.7249 14.1119 13.6053 14.1916 13.537 14.2031C13.4174 14.2202 13.2008 14.0322 13.047 13.8955C12.9844 13.8385 12.9216 13.7872 12.8646 13.7417C12.3062 13.2974 11.7424 12.7904 11.1441 12.1921C10.301 11.349 9.46905 10.4545 8.68861 9.5486C8.60893 9.45184 8.35818 9.1669 8.39812 9.01313C8.4152 8.93902 8.51197 8.83649 8.58608 8.75105L8.85392 8.45479C9.49194 7.74841 10.1473 7.02479 10.5687 6.08473C10.922 5.29849 10.6199 4.72304 10.3179 4.3072C9.59445 3.31012 8.7341 2.41579 7.76566 1.65244C7.32137 1.30492 6.39842 0.575699 5.39559 0.82647C4.17637 1.13405 3.15091 2.28491 2.54133 2.9742C0.820824 4.91109 0.62153 7.34372 1.96593 9.99884C3.03132 12.1124 4.46118 14.192 5.98793 15.8556C6.84808 16.7956 7.74836 17.6502 8.66558 18.3908C9.6968 19.2283 10.762 19.9347 11.8332 20.493C13.8955 21.564 16.3168 22.5497 18.9545 20.6525C19.3191 20.3904 19.8091 20.0371 20.2591 19.61C20.7262 19.1657 21.1592 18.6358 21.3813 18.0319C21.7401 17.0578 21.1079 16.0664 20.8001 15.588C20.1392 14.5454 19.3359 13.5996 18.4187 12.7794C18.0376 12.4259 17.4906 12.0668 16.6704 12.3405L16.6704 12.3401ZM20.0431 16.0545C20.4077 16.6241 20.7153 17.2224 20.5387 17.7124C20.2025 18.6354 19.0916 19.4387 18.4251 19.9172C16.4197 21.3643 14.5682 20.9027 12.2382 19.6893C11.2185 19.1596 10.2044 18.4872 9.21887 17.6896C8.34163 16.9775 7.46993 16.1571 6.63822 15.2456C5.16844 13.639 3.7897 11.6337 2.7529 9.5888C1.57361 7.25291 1.72168 5.22482 3.19718 3.56114C3.41933 3.31038 3.70426 2.99148 4.02895 2.6839C4.49608 2.23961 5.04312 1.82929 5.60698 1.68681C6.11405 1.55587 6.67797 1.92604 7.20789 2.34767C8.11377 3.0598 8.9113 3.89731 9.58925 4.82583C9.85133 5.18467 9.8855 5.39548 9.74304 5.71461C9.38419 6.52349 8.79723 7.16731 8.18205 7.851L7.90865 8.15302C7.77194 8.30105 7.58954 8.51187 7.52119 8.79678C7.37316 9.39507 7.81168 9.90771 8.00541 10.1298C8.80299 11.0586 9.64625 11.9642 10.5064 12.8246C11.1273 13.4455 11.7141 13.9697 12.301 14.4368C12.3523 14.4767 12.3978 14.5222 12.4548 14.5677C12.7397 14.8185 13.1328 15.1602 13.6569 15.0861C13.9474 15.0462 14.1753 14.8811 14.3406 14.767L14.6653 14.5333C15.4059 13.9863 16.1124 13.4737 16.9497 13.1945C17.2801 13.0862 17.491 13.1433 17.8156 13.4395C18.6758 14.2029 19.4278 15.0861 20.0432 16.0546L20.0431 16.0545Z" fill="#EA5B24" stroke="#EA5B24" stroke-width="0.6"/>
</svg>