<svg width="25" height="25" viewBox="0 0 25 25" fill="none" xmlns="http://www.w3.org/2000/svg">
<path fill-rule="evenodd" clip-rule="evenodd" d="M0.488281 12.25C0.488281 5.49442 5.98269 0 12.7383 0C19.4938 0 24.9882 5.49442 24.9882 12.25C24.9882 19.0056 19.4938 24.5 12.7383 24.5C10.6198 24.5 8.54957 23.9557 6.71752 22.9204L2.47343 24.2258L2.47262 24.226C2.05915 24.3527 1.608 24.2452 1.29554 23.9446C0.980647 23.6417 0.858161 23.1921 0.972496 22.7729L0.974139 22.7669L0.974164 22.7669C0.973885 22.7678 0.974585 22.7653 0.976654 22.7577L0.983505 22.7327L1.01167 22.6297L1.11309 22.2588C1.19841 21.9471 1.3161 21.5178 1.44773 21.0396C1.67788 20.2035 1.95129 19.2158 2.16893 18.4463C1.06719 16.5713 0.488281 14.4401 0.488281 12.25ZM12.7383 1.5C6.81112 1.5 1.98828 6.32285 1.98828 12.25C1.98828 14.2735 2.55025 16.2356 3.61557 17.9394C3.72813 18.1194 3.75912 18.3387 3.70084 18.5429C3.36136 19.7322 2.82598 21.6828 2.56738 22.6275L6.59085 21.39C6.79473 21.3273 7.01566 21.3543 7.19837 21.4644C8.86662 22.4694 10.7775 23 12.7383 23C18.6654 23 23.4882 18.1772 23.4882 12.25C23.4882 6.32285 18.6654 1.5 12.7383 1.5Z" fill="#EA5B24"/>
<path d="M18.103 13.8706C17.5069 13.544 16.9993 13.2165 16.6289 12.9776C16.346 12.7954 16.1416 12.6638 15.9918 12.5896C15.573 12.3834 15.2555 12.529 15.1348 12.6494C15.1196 12.6644 15.106 12.6807 15.0944 12.6979C14.6594 13.3417 14.0914 13.9576 13.9251 13.9907C13.733 13.9611 12.8337 13.4568 11.9398 12.7224C11.0273 11.9721 10.4531 11.2537 10.3688 10.7644C10.9543 10.1699 11.1651 9.79584 11.1651 9.37021C11.1651 8.93151 10.1279 7.09994 9.94032 6.91484C9.75206 6.72942 9.32807 6.70043 8.67998 6.82786C8.61766 6.84029 8.56018 6.87055 8.51497 6.91484C8.4365 6.99226 6.6004 8.83912 7.47292 11.0775C8.43069 13.5342 10.8891 16.3897 14.0233 16.8536C14.3795 16.9061 14.7134 16.9322 15.0259 16.9322C16.8698 16.9322 17.958 16.0169 18.2645 14.2013C18.2874 14.0684 18.2225 13.9359 18.103 13.8706Z" stroke="#EA5B24" stroke-width="1.5"/>
</svg>
