<svg width="28" height="20" viewBox="0 0 28 20" fill="none" xmlns="http://www.w3.org/2000/svg">
<path d="M3.04796 0.829956C1.60621 0.829956 0.449219 2.04264 0.449219 3.49958V16.9901C0.449219 18.4471 1.60616 19.67 3.04796 19.67H24.4871C25.9289 19.67 27.0859 18.4471 27.0859 16.9901V3.49958C27.0859 2.04264 25.9289 0.829956 24.4871 0.829956H3.04796ZM3.04796 2.12918H24.4871C24.6795 2.12918 24.861 2.18447 25.025 2.26105L14.5694 12.1888C14.0895 12.6445 13.4666 12.6445 12.9857 12.1888L2.5098 2.26105C2.67408 2.18447 2.85557 2.12918 3.04772 2.12918H3.04796ZM1.76886 3.34732L9.16873 10.362L1.8901 17.6302C1.79901 17.441 1.74803 17.2242 1.74803 16.9908V3.50028C1.74803 3.44748 1.76321 3.39877 1.76819 3.34801L1.76886 3.34732ZM25.7661 3.34732C25.7713 3.39807 25.7863 3.44679 25.7863 3.49958V16.9901C25.7863 17.2203 25.7328 17.4322 25.6442 17.6196L18.3864 10.3514L25.7661 3.34732ZM17.4422 11.2547L24.548 18.371H24.487H3.04786H2.9971L10.1133 11.2652L12.0928 13.1329C13.0356 14.0266 14.5205 14.028 15.4631 13.1329L17.4422 11.2547Z" fill="#EA5B24" stroke="#EA5B24" stroke-width="0.2"/>
</svg>
