<svg xmlns="http://www.w3.org/2000/svg" xml:space="preserve" width="6.1094mm" height="6.1094mm" version="1.1" style="shape-rendering:geometricPrecision; text-rendering:geometricPrecision; image-rendering:optimizeQuality; fill-rule:evenodd; clip-rule:evenodd"
viewBox="0 0 6.43 6.43"
 xmlns:xlink="http://www.w3.org/1999/xlink"
 xmlns:xodm="http://www.corel.com/coreldraw/odm/2003">
 <defs>
  <style type="text/css">
   <![CDATA[
    .fil0 {fill:#EF5D21}
    .fil1 {fill:#EF5D21;fill-rule:nonzero}
   ]]>
  </style>
 </defs>
 <g id="Слой_x0020_1">
  <metadata id="CorelCorpID_0Corel-Layer"/>
  <g id="_1869137109760">
   <path class="fil0" d="M0.84 3.19c0,0.07 0.01,0.12 0.05,0.18 0.02,0.04 0.06,0.07 0.1,0.1 0.08,0.05 0.2,0.09 0.29,0.11 0.1,0.03 0.2,0.07 0.3,0.1 0.05,0.02 0.1,0.03 0.15,0.05 0.03,0.01 0.05,0.02 0.07,0.03 0.01,0.01 0.06,0.02 0.08,0.02 0,0.02 0.04,0.15 0.05,0.17l0.13 0.42c0.01,0.03 0.02,0.06 0.03,0.09 0.03,0.1 0.08,0.29 0.12,0.37 0.01,0.01 0.01,0.02 0.02,0.04 0.01,0.02 0.03,0.05 0.05,0.06 0.01,0.01 0.02,0.02 0.03,0.03 0.01,0.01 0.02,0.01 0.03,0.02 0.01,0 0.01,0.01 0.02,0.01 0.06,0.02 0.15,0.02 0.21,-0.01 0.02,-0.01 0.04,-0.02 0.06,-0.04 0.01,-0.01 0.01,-0.01 0.02,-0.02 0.01,-0.01 0.01,-0.01 0.02,-0.01l0.04 -0.03c0.01,-0.01 0.01,-0.01 0.02,-0.02 0.01,-0.01 0.01,-0.01 0.02,-0.01 0.01,-0.01 0.01,-0.01 0.02,-0.02l0.21 -0.19c0.01,-0.01 0.01,-0.01 0.02,-0.01l0.09 -0.08c0.04,0.03 0.07,0.06 0.11,0.08l0.23 0.17c0.02,0.01 0.04,0.03 0.06,0.04l0.36 0.28c0.07,0.05 0.15,0.06 0.24,0.06 0.15,0 0.27,-0.1 0.33,-0.22 0.02,-0.03 0.02,-0.07 0.03,-0.11 0.12,-0.57 0.22,-1.15 0.34,-1.72 0.01,-0.07 0.03,-0.15 0.04,-0.23l0.18 -0.92c0.01,-0.04 0.02,-0.08 0.02,-0.12 0.02,-0.11 0.03,-0.18 -0.02,-0.28 -0.07,-0.15 -0.25,-0.18 -0.4,-0.12 -0.14,0.05 -0.28,0.11 -0.42,0.17l-0.51 0.22c-0.15,0.07 -0.3,0.12 -0.45,0.19l-0.89 0.38c-0.02,0.01 -0.05,0.02 -0.07,0.03l-0.14 0.06c-0.09,0.04 -0.18,0.08 -0.28,0.12 -0.05,0.02 -0.09,0.04 -0.14,0.06l-0.41 0.17c-0.06,0.03 -0.22,0.09 -0.27,0.12 -0.04,0.03 -0.07,0.05 -0.1,0.09 -0.02,0.03 -0.05,0.09 -0.05,0.14zm0.37 0.02c1.16,-0.48 2.33,-0.99 3.49,-1.47 -0.21,1.01 -0.39,2.03 -0.6,3.05 -0,0.02 -0.02,0.07 -0.09,0.04 -0.33,-0.26 -0.61,-0.48 -0.96,-0.73 -0.18,0.18 -0.39,0.35 -0.57,0.53 0.05,-0.26 0.08,-0.51 0.13,-0.77 0.49,-0.5 1.43,-1.32 1.59,-1.5 0.02,-0.02 -0.01,-0.07 -0.04,-0.06 -0.14,0.03 -1.32,0.84 -2.01,1.23 -0.31,-0.11 -0.63,-0.21 -0.94,-0.32z"/>
   <path class="fil1" d="M3.22 0c0.89,0 1.69,0.36 2.27,0.94 0.58,0.58 0.94,1.39 0.94,2.27 0,0.89 -0.36,1.69 -0.94,2.27 -0.58,0.58 -1.39,0.94 -2.27,0.94 -0.89,0 -1.69,-0.36 -2.27,-0.94 -0.58,-0.58 -0.94,-1.39 -0.94,-2.27 0,-0.89 0.36,-1.69 0.94,-2.27 0.58,-0.58 1.39,-0.94 2.27,-0.94zm2.06 1.16c-0.53,-0.53 -1.25,-0.85 -2.06,-0.85 -0.8,0 -1.53,0.33 -2.06,0.85 -0.53,0.53 -0.85,1.25 -0.85,2.06 0,0.8 0.33,1.53 0.85,2.06 0.53,0.53 1.25,0.85 2.06,0.85 0.8,0 1.53,-0.33 2.06,-0.85 0.53,-0.53 0.85,-1.25 0.85,-2.06 0,-0.8 -0.33,-1.53 -0.85,-2.06z"/>
  </g>
 </g>
</svg>
