<svg xmlns="http://www.w3.org/2000/svg" xml:space="preserve" width="192.339mm" height="10.3944mm" version="1.1" style="shape-rendering:geometricPrecision; text-rendering:geometricPrecision; image-rendering:optimizeQuality; fill-rule:evenodd; clip-rule:evenodd"
viewBox="0 0 50803.06 2745.51"
 xmlns:xlink="http://www.w3.org/1999/xlink"
 xmlns:xodm="http://www.corel.com/coreldraw/odm/2003">
 <defs>
  <style type="text/css">
   <![CDATA[
    .fil3 {fill:#FEFEFE}
    .fil2 {fill:#FEFEFE}
    .fil0 {fill:white}
    .fil4 {fill:#FEFEFE;fill-rule:nonzero}
    .fil1 {fill:white;fill-rule:nonzero}
   ]]>
  </style>
 </defs>
 <g id="Слой_x0020_1">
  <metadata id="CorelCorpID_0Corel-Layer"/>
  <polygon class="fil0" points="8362.43,2706.92 8896.91,2706.92 8896.91,39.3 8371.49,39.3 7478.86,1514.67 6587.41,39.3 6061.75,39.3 6061.75,2706.92 6596.25,2706.92 6596.25,1034.5 7302.39,2187.58 7656.41,2187.58 8362.43,1034.5 "/>
  <path class="fil0" d="M-0 2706.92l703.1 0 654.1 -937.83 519.05 0 0 937.83 593.11 0 0 -1436.91 -593.11 0 -91.15 0 -696.18 0c-73.75,0 -145.01,-13 -209.25,-45.62 -59.91,-31.88 -106.18,-74.33 -138.96,-128.95 -35.45,-59.48 -49.5,-126.26 -49.5,-193.03 0,-99.29 30.16,-190.99 108.98,-263.97 77.87,-72.13 177.68,-100.9 288.72,-100.9l696.18 0 91.15 0 593.11 0 0 -498.23 -1356.64 0c-191.29,0 -381.2,30.22 -552.49,107.9 -155.28,70.39 -279.72,170.45 -368.84,303.49 -92.58,138.09 -130.96,292.11 -130.96,451.72 0,160.99 38.06,316.11 131.83,455.29 89.51,132.78 215.96,233.1 370.9,303.49 46.38,21.08 94.61,38.85 144.06,53.49l8.72 2.59 -715.93 989.65z"/>
  <path class="fil0" d="M41011.82 2707.29l697.34 0 649.16 -930.54 514.88 0 0 930.54 588.36 0 0 -1425.55 -588.36 0 -476.6 0 -304.68 0c-72.85,0 -143.85,-12.57 -207.42,-45.06 -59.59,-31.41 -105.28,-73.72 -137.98,-128.32 -35.21,-58.98 -49.1,-125.07 -49.1,-191.42 0,-98.28 30.27,-208.27 108.37,-280.62 77.15,-71.82 175.94,-100.48 286.14,-100.48l304.68 0 476.6 0 588.36 0 0 -475.18 -1345.86 0c-189.83,0 -378.13,30.32 -548.24,107.32 -153.73,69.63 -277.5,169.02 -365.77,300.9 -92,137.06 -129.98,289.97 -129.98,448.05 0,160.01 37.98,313.45 130.9,451.88 88.88,131.62 213.92,231.28 367.94,301.19 42.29,18.83 85.5,35.21 129.95,48.86l21.61 6.81 -710.28 981.6z"/>
  <path class="fil0" d="M39880.51 2707.29l587.43 0 0 -2646.62 -2109.55 0 0 1463.8c0,173.38 -25.01,374.07 -128.42,524.78 -82.12,119.04 -198.79,186.21 -358.38,186.21l-8.95 -7.92 8.64 502.14 57.71 0c195.12,0 386.19,-35.76 550.72,-132.15 162.05,-94.77 273.48,-229.93 347.26,-387.46 90.44,-192.24 118.86,-407.11 118.86,-614.35l0 -1058.07 934.69 0 0 2169.62z"/>
  <polygon class="fil0" points="36728.03,2704.28 37309.91,2704.28 37309.91,60.67 36805.21,60.67 35431.24,1827.27 35431.24,60.67 34848.43,60.67 34848.43,2704.28 35358.39,2704.28 36728.03,978.64 "/>
  <polygon class="fil0" points="34380.67,529.77 34380.67,60.67 32056.88,60.67 32056.88,529.77 32924.59,529.77 32924.59,2707.29 33512.94,2707.29 33512.94,529.77 "/>
  <path class="fil0" d="M31783.4 2329.39l-423.83 -362.05c-81.8,88.46 -178.74,159.72 -294.51,209.96 -112.34,48.6 -231.8,74.01 -356.82,74.01 -196.33,0 -389.57,-42.6 -529.72,-171.74 -141.36,-130.24 -184.6,-308.01 -184.6,-483.84l0 -435.79c0,-174.2 44.45,-346.49 186.77,-474.28 141.07,-126.41 331.83,-168.73 527.55,-168.73 122.85,0 242,23.48 353.75,68.54 115.43,46.41 214.21,112.76 297.57,196.86l-0.92 11.46 424.75 -348.13c-74.09,-91.47 -167.01,-167.94 -273.51,-229.08 -114.21,-65.53 -239.86,-112.76 -371.03,-144.45 -143.24,-34.39 -291.42,-49.42 -439.57,-49.42 -240.18,0 -484.02,34.68 -698.55,133.81 -192.63,89.28 -341.1,218.7 -442.66,389.07 -113,188.67 -152.48,403.01 -152.48,614.35l0 435.79c0,213.53 39.2,430.59 152.48,621.72 101.56,171.18 249.1,302.8 442.66,392.9 214.21,100.5 458.38,135.16 698.55,135.16 147.54,0 293.85,-15.56 436.48,-48.86 131.2,-30.59 257.13,-75.91 371.03,-140.62 107.13,-60.88 201.27,-135.98 276.6,-226.63z"/>
  <polygon class="fil0" points="27260.7,60.67 26673.58,60.67 26673.58,2707.29 27260.7,2707.29 27260.7,1629.04 27608.9,1629.04 28463.03,2707.29 29250.17,2707.29 28056.48,1345.89 29074.24,60.67 28364.56,60.67 27590.99,1133.74 27260.7,1133.74 "/>
  <path class="fil0" d="M24249.21 1158.04c9.88,-168.2 55.86,-340.49 180.59,-472.38 132.73,-140.33 315.16,-193.85 517.65,-193.85 177.18,0 324.75,56.52 436.48,179.93 122.87,135.98 171.32,315.64 187.69,486.03l1.24 17.2 -1324.89 0 1.24 -16.93zm1882.66 435.24l0 -173.11c0,-252.83 -34.26,-516.33 -139.83,-752.78 -84.89,-190.04 -213.29,-360.41 -404.36,-479.48 -189.54,-118.49 -410.57,-165.19 -640.23,-165.19 -236.74,0 -473.22,39.07 -680.04,145.27 -194.16,99.66 -335.53,243.82 -430.91,422.67 -110.83,208.32 -148.5,442.87 -148.5,671.14l0 298.44c0,220.63 39.83,445.06 154.36,643.01 101.85,175.86 250.03,311.84 447.89,404.39 217.01,102.4 465.51,137.88 709.07,137.88 192.29,0 379.06,-37.67 555.63,-103.75 186.45,-69.33 353.44,-167.91 499.13,-291.34l12.97 0 -398.5 -342.11c-92,76.44 -198.18,136.24 -314.87,178.55 -113.29,40.68 -231.83,64.45 -354.36,64.45 -205.6,0 -408.4,-43.42 -556.58,-176.94 -138.91,-124.22 -188.91,-294.32 -195.09,-464.72l-0.61 -16.38 1884.83 0z"/>
  <polygon class="fil0" points="23375.32,529.77 23375.32,60.67 21051.56,60.67 21051.56,529.77 21919.26,529.77 21919.26,2707.29 22507.62,2707.29 22507.62,529.77 "/>
  <polygon class="fil1" points="44083.48,2301.79 44539.27,2301.79 44539.27,2705.17 44083.48,2705.17 "/>
  <path class="fil2" d="M11193.28 2261.32l-0.74 -725.94c0,-13.15 -540.76,-11.75 -683.44,-11.75 -154.62,0 -334.5,-11.83 -451.35,83.41 -197.12,160.73 -195.38,386.45 -22.4,550.11 86.58,81.88 194.3,104.17 317.07,104.17l840.87 0zm577.61 -1266.68l0 737.12c0,355.63 0.4,693.75 3.72,975.79 -193.85,0.9 -388.59,0.05 -583.07,0.05 4.86,-2.88 -406.4,14.84 -842.16,-4.81 -267.83,0 -496.52,-38.51 -704.26,-197.07 -197.55,-150.85 -275.62,-456 -275.62,-675.65 0,-232.6 84.95,-442.29 299.9,-597.21 228.13,-164.4 480.06,-226.05 767.65,-226.05 286.61,0 508.25,3.28 753.2,6.89l580.64 -19.07zm0.18 0.29c0,-187.01 -38.48,-370.55 -144.35,-535.58 -97.6,-152.14 -239.65,-265 -419.95,-341.87 -205.13,-87.51 -435.71,-117.49 -662.68,-117.49 -220.92,0 -439.12,30.19 -644.27,102.48 -179.9,63.37 -341.08,155.84 -466.06,285.29l-0.03 0.03 446.7 266.72 -0.08 -2.61c96.09,-60.59 203.25,-105.76 316.48,-136.93 118.09,-32.49 240.68,-49.47 364.64,-49.47 173.01,0 340.44,36.56 464,146.62 123.98,110.41 163.92,252.12 163.92,401.67 223.51,-9.06 422.03,-16.9 581.67,-18.86z"/>
  <polygon class="fil0" points="15900.53,47.12 15308.51,47.12 15308.51,2714.76 15900.53,2714.76 15900.53,1627.8 16251.44,1627.8 17029.57,2714.76 17730.24,2710.93 16702.44,1342.59 17728.34,47.12 17036.76,47.12 16233.26,1102.07 15900.53,1102.07 "/>
  <path class="fil2" d="M19956.83 2261.85l-0.74 -726.1c0,-13.13 -540.89,-11.75 -683.63,-11.75 -154.65,0 -334.58,-11.83 -451.43,83.44 -197.2,160.78 -195.46,386.53 -22.4,550.24 86.58,81.88 194.32,104.17 317.12,104.17l841.08 0zm577.74 -1266.97l0 737.3c0,355.71 0.4,693.9 3.72,976.03 -193.9,0.9 -388.67,0.05 -583.21,0.05 4.86,-2.88 -406.5,14.84 -842.37,-4.81 -267.91,0 -496.65,-38.51 -704.42,-197.12 -197.62,-150.87 -275.7,-456.11 -275.7,-675.81 0,-232.68 84.95,-442.4 299.95,-597.36 228.21,-164.42 480.19,-226.1 767.86,-226.1 286.69,0 508.38,3.28 753.36,6.89l580.8 -19.07zm0.18 0.29c0,-187.06 -38.48,-370.63 -144.38,-535.72 -97.62,-152.17 -239.73,-265.08 -420.05,-341.95 -205.18,-87.53 -435.82,-117.51 -662.84,-117.51 -220.97,0 -439.23,30.22 -644.43,102.51 -179.93,63.37 -341.15,155.87 -466.17,285.37l-0.03 0.03 446.81 266.77 -0.11 -2.61c96.12,-60.62 203.3,-105.79 316.59,-136.95 118.09,-32.51 240.73,-49.5 364.72,-49.5 173.06,0 340.52,36.56 464.11,146.67 124.01,110.43 163.95,252.17 163.95,401.77 223.59,-9.09 422.16,-16.93 581.83,-18.89z"/>
  <path class="fil3" d="M45573.08 535.08l3.91 734.21c0,2.4 522.59,0.63 660.15,0.63 300.72,0 605.39,-68.01 605.39,-385.69 0,-100.93 -29.19,-188.17 -116.85,-258.3 -91.15,-72.9 -220.82,-89.44 -338.94,-89.62l-813.66 -1.24zm0 2165.26l-553.49 0 0 -1698.4c0,-354.52 -0.05,-674.2 -3.28,-955.4 218.41,-0.69 419.34,-0.13 637.99,-0.13l735.37 0c258.14,0 521.93,25.89 722.14,183.97 190.39,150.37 294.83,454.6 294.83,673.57 0,231.88 -81.85,442.5 -289.04,596.97 -219.92,163.87 -535.24,222.37 -812.42,222.37 -276.26,0 -489.86,1.19 -726.68,-0.18l-5.41 977.24z"/>
  <path class="fil3" d="M12877.77 535.08l3.91 734.21c0,2.4 522.59,0.63 660.15,0.63 300.72,0 605.39,-68.01 605.39,-385.69 0,-100.93 -29.19,-188.17 -116.85,-258.3 -91.15,-72.9 -220.82,-89.44 -338.94,-89.62l-813.66 -1.24zm0 2165.26l-553.49 0 0 -1698.4c0,-354.52 -0.05,-674.2 -3.28,-955.4 218.41,-0.69 419.34,-0.13 637.99,-0.13l735.37 0c258.14,0 521.93,25.89 722.14,183.97 190.39,150.37 294.83,454.6 294.83,673.57 0,231.88 -81.85,442.5 -289.04,596.97 -219.92,163.87 -535.24,222.37 -812.42,222.37 -276.26,0 -489.86,1.19 -726.68,-0.18l-5.41 977.24z"/>
  <path class="fil3" d="M3627.4 535.08l3.91 734.21c0,2.4 522.59,0.63 660.15,0.63 300.72,0 605.39,-68.01 605.39,-385.69 0,-100.93 -29.19,-188.17 -116.85,-258.3 -91.15,-72.9 -220.82,-89.44 -338.94,-89.62l-813.66 -1.24zm0 2165.26l-553.49 0 0 -1698.4c0,-354.52 -0.05,-674.2 -3.28,-955.4 218.41,-0.69 419.34,-0.13 637.99,-0.13l735.37 0c258.14,0 521.93,25.89 722.14,183.97 190.39,150.37 294.83,454.6 294.83,673.57 0,231.88 -81.85,442.5 -289.04,596.97 -219.92,163.87 -535.24,222.37 -812.42,222.37 -276.26,0 -489.86,1.19 -726.68,-0.18l-5.41 977.24z"/>
  <path class="fil4" d="M48642.6 3.06l1259.68 0c247.73,0 472.83,95.7 635.74,249.76 162.97,154.1 264.13,366.91 264.13,601.17l0.9 593.43c0,234.26 -101.16,447.07 -264.13,601.17 -162.92,154.07 -388.01,249.76 -635.74,249.76l-1259.68 0c-247.73,0 -472.75,-95.67 -635.72,-249.76 -162.92,-154.07 -264.11,-366.91 -264.11,-601.17l-0.9 -593.43c0,-234.26 101.19,-447.1 264.11,-601.17 162.97,-154.1 387.99,-249.76 635.72,-249.76zm1259.68 537.51l-1259.68 0c-90.84,0 -173.67,35.34 -233.86,92.29 -60.17,56.89 -97.54,135.24 -97.54,221.13l0.9 593.43c0,85.9 37.37,164.24 97.54,221.13 60.2,56.95 143.03,92.29 233.86,92.29l1259.68 0c90.84,0 173.72,-35.34 233.89,-92.26 60.2,-56.92 97.57,-135.26 97.57,-221.16l-0.9 -593.43c0,-85.9 -37.37,-164.24 -97.57,-221.16 -60.17,-56.92 -143.05,-92.26 -233.89,-92.26z"/>
  <rect class="fil2" x="48992.17" y="49.22" width="559.83" height="2655.7"/>
 </g>
</svg>