<svg width="55" height="52" viewBox="0 0 55 52" fill="none" xmlns="http://www.w3.org/2000/svg">
<path fill-rule="evenodd" clip-rule="evenodd" d="M54.4165 0C54.8055 2.3301 55 4.69903 55 7.1068C55 31.8835 34.8904 52 10.0354 52C6.57355 52 3.22843 51.6116 0 50.8738V35.534C3.11174 36.5825 6.41796 37.165 9.87978 37.165C26.7221 37.165 40.3748 23.6893 40.3748 7.06796C40.3748 4.66019 40.0446 2.25243 39.5 0H54.4554H54.4165Z" fill="#FFF600"/>
<path d="M10.8551 32.9453L9.92194 32.0177L12.022 29.9051L12.9551 30.8327L10.8551 32.9453Z" fill="#FF4803"/>
<path d="M32.9308 14.5533L31.478 6.96842L32.2423 6.19949L33.6952 13.7844L32.9308 14.5533ZM31.242 12.0909C31.0236 12.3106 30.7814 12.4552 30.5153 12.5247C30.2449 12.5899 29.9679 12.58 29.6841 12.495C29.4004 12.4013 29.1314 12.2282 28.8773 11.9755C28.6231 11.7229 28.4505 11.4571 28.3595 11.1782C28.2728 10.895 28.2612 10.618 28.3248 10.3472C28.3884 10.0764 28.5294 9.83122 28.7478 9.61152C28.9662 9.39183 29.2106 9.24936 29.481 9.18413C29.7514 9.1189 30.0263 9.13097 30.3057 9.22033C30.5852 9.30969 30.852 9.48069 31.1061 9.73334C31.3603 9.98599 31.535 10.2539 31.6304 10.5371C31.7214 10.816 31.7351 11.0908 31.6715 11.3616C31.6035 11.6281 31.4604 11.8712 31.242 12.0909ZM30.7122 11.5642C30.8535 11.422 30.9088 11.2501 30.8781 11.0483C30.8431 10.8422 30.705 10.6193 30.4638 10.3795C30.2226 10.1397 30.001 10.0051 29.799 9.97561C29.5928 9.94186 29.419 9.99607 29.2777 10.1382C29.1406 10.2761 29.0875 10.4502 29.1182 10.6605C29.1488 10.8623 29.2848 11.0831 29.526 11.3229C29.7629 11.5584 29.9845 11.693 30.1908 11.7268C30.4013 11.7562 30.5751 11.702 30.7122 11.5642ZM36.4253 11.1413C36.2112 11.3567 35.969 11.5013 35.6986 11.5751C35.4283 11.6403 35.1533 11.6282 34.8739 11.5389C34.5902 11.4452 34.3212 11.2721 34.067 11.0194C33.8129 10.7668 33.6403 10.501 33.5493 10.2221C33.4582 9.94322 33.4445 9.66839 33.5082 9.39761C33.5761 9.12253 33.7171 8.8773 33.9312 8.66191C34.1538 8.43791 34.4004 8.29329 34.6708 8.22806C34.9411 8.16283 35.2161 8.1749 35.4955 8.26426C35.7749 8.35362 36.0417 8.52463 36.2959 8.77727C36.5501 9.02992 36.7248 9.29783 36.8201 9.58102C36.9112 9.85992 36.9249 10.1348 36.8612 10.4055C36.7933 10.672 36.648 10.9173 36.4253 11.1413ZM35.8955 10.6146C36.0368 10.4724 36.0921 10.3004 36.0615 10.0987C36.0265 9.89262 35.8884 9.66969 35.6472 9.42989C35.4102 9.19438 35.1886 9.05975 34.9824 9.026C34.7761 8.99226 34.6023 9.04646 34.461 9.18862C34.324 9.32646 34.2708 9.50057 34.3015 9.71093C34.3322 9.9127 34.4681 10.1335 34.7094 10.3733C34.9506 10.6131 35.1743 10.7499 35.3806 10.7836C35.5868 10.8088 35.7585 10.7524 35.8955 10.6146Z" fill="#FF4803"/>
<path d="M21.5958 30.4584C20.9874 31.0704 20.3035 31.5991 19.5442 32.0444C18.7847 32.473 18.0416 32.751 17.3147 32.8786L16.5554 30.5236C17.1319 30.4299 17.7081 30.2359 18.284 29.9416C18.8683 29.639 19.3854 29.2613 19.8354 28.8085C20.3438 28.2971 20.6433 27.7946 20.7337 27.3012C20.8242 26.8077 20.6892 26.3818 20.3287 26.0234C20.1023 25.7984 19.8428 25.6571 19.55 25.5994C19.2573 25.5418 18.9148 25.6181 18.5225 25.8282C18.1386 26.03 17.68 26.3991 17.1466 26.9357L14.9088 29.1868L10.4039 23.8086L15.742 18.4386L17.3769 20.0638L12.7639 24.7043L12.8834 22.7229L16.1047 26.5501L14.124 26.6814L15.9742 24.8202C16.8409 23.9482 17.6584 23.369 18.4266 23.0825C19.1947 22.7793 19.905 22.7103 20.5575 22.8755C21.2101 23.0408 21.7962 23.3817 22.316 23.8985C22.8358 24.4152 23.1887 25.0244 23.3747 25.726C23.5523 26.4192 23.5086 27.1759 23.2436 27.9959C22.9785 28.7991 22.4292 29.62 21.5958 30.4584Z" fill="#FF4803"/>
<path d="M29.8057 22.1994C29.089 22.9204 28.2712 23.3909 27.3523 23.611C26.4251 23.8228 25.4594 23.7546 24.4553 23.4065C23.4511 23.0584 22.467 22.4051 21.5028 21.4467C20.5386 20.4883 19.8795 19.508 19.5255 18.506C19.1714 17.504 19.1016 16.5429 19.3162 15.6227C19.5224 14.6942 19.9839 13.8695 20.7007 13.1484C21.4257 12.419 22.2477 11.9526 23.1666 11.7493C24.0855 11.5292 25.047 11.5932 26.0511 11.9413C27.0553 12.2894 28.0394 12.9427 29.0036 13.9011C29.9677 14.8595 30.6269 15.8398 30.9809 16.8418C31.335 17.8439 31.4089 18.8091 31.2027 19.7376C30.9965 20.6494 30.5308 21.47 29.8057 22.1994ZM28.0828 20.4867C28.4245 20.1429 28.6239 19.7495 28.6811 19.3063C28.7467 18.8547 28.6407 18.3493 28.3632 17.79C28.094 17.2224 27.6282 16.6094 26.9659 15.951C26.3035 15.2926 25.6878 14.8305 25.1185 14.5647C24.5577 14.2905 24.0516 14.1875 23.6004 14.2557C23.1576 14.3156 22.7653 14.5174 22.4236 14.8611C22.0902 15.1965 21.8908 15.59 21.8252 16.0415C21.768 16.4847 21.874 16.9902 22.1432 17.5578C22.4207 18.117 22.8907 18.7258 23.553 19.3842C24.2154 20.0426 24.827 20.5089 25.3878 20.7831C25.9571 21.0489 26.4631 21.1519 26.906 21.0921C27.3572 21.0238 27.7494 20.8221 28.0828 20.4867Z" fill="#FF4803"/>
<path d="M22.5893 44.8324L19.3735 45.7318L19.1821 47.4134L17 48L18.3016 39.3184L20.4072 38.7318L25.8434 45.5754L23.5847 46.2011L22.5893 44.8715V44.8324ZM21.5174 43.3855L19.8712 41.1564L19.565 43.8939L21.5174 43.3464V43.3855ZM28.9826 40.1397L28.1021 40.6872L29.6334 43.3464L27.7193 44.5196L23.6995 37.5978L25.6137 36.4246L27.1833 39.1229L28.1021 38.5754L28.1404 34.8994L30.1694 33.6872L30.0162 38.3017L34.2274 40.5698L32.0835 41.8994L28.9826 40.1788V40.1397ZM40.6972 31.8883L43.0325 34.352L41.5777 35.7989L40.4675 34.6257L35.8353 39.2011L30.3608 33.4134L31.9304 31.8492L36.1798 36.3464L38.362 34.1955L34.1125 29.6983L35.6821 28.1341L39.9316 32.6313L40.6972 31.8492V31.8883ZM36.5244 26.7654L37.7111 24.8883L41.616 27.4302L39.4339 22.1117L40.5441 20.3128L47.2053 24.6145L46.0186 26.4916L42.1137 23.9888L44.2958 29.3073L43.1856 31.1061L36.5244 26.8045V26.7654ZM42.42 13L50 15.1508L49.4258 17.3017L47.5116 16.7542L47.2053 17.9665L48.7749 19.7654L48.1624 22.0726L46.3631 19.8827C46.0186 20.352 45.5592 20.6257 45.0615 20.7821C44.5638 20.9385 44.0278 20.9385 43.4536 20.7821C42.8794 20.6257 42.3817 20.3129 42.0371 19.9218C41.6926 19.5307 41.4629 19.0223 41.348 18.4358C41.2715 17.8492 41.3097 17.1844 41.5012 16.4804L42.4582 13H42.42ZM43.1856 16.9106C42.9559 17.7709 43.2239 18.3184 43.9896 18.5531C44.3724 18.6704 44.6787 18.6313 44.9466 18.4749C45.2146 18.3184 45.406 18.0056 45.4826 17.6145L45.8271 16.324L43.4919 15.6592L43.1473 16.9497L43.1856 16.9106Z" fill="#FF4803"/>
</svg>
