<svg width="60" height="52" viewBox="0 0 60 52" fill="none" xmlns="http://www.w3.org/2000/svg">
<g clip-path="url(#clip0_12_594)">
<path fill-rule="evenodd" clip-rule="evenodd" d="M59.6614 0C60.0729 3.40383 60.0729 6.91239 59.7129 10.4209C57.0384 35.9235 34.5625 54.4089 9.51497 51.6858C6.22331 51.3192 3.0345 50.6385 0 49.5911V35.3998C3.55263 36.9184 5.37202 37.1279 10.6979 37.6516C27.6191 38.8036 43.2031 26.0785 45.0032 8.84995C45.3118 5.86505 45.1979 2.82779 44.6836 0H59.6614ZM12.5495 48.3343C11.8294 48.3343 11.2122 48.1772 10.6979 47.863C10.1322 47.5488 9.7207 47.1299 9.41211 46.5539C9.10351 46.0302 8.94922 45.4018 8.94922 44.721C8.94922 44.0403 9.15494 43.4119 9.46354 42.8882C9.77213 42.3645 10.235 41.9456 10.8008 41.6838C11.3665 41.3696 11.9837 41.2648 12.7038 41.2648C13.321 41.2648 13.8867 41.4219 14.3496 41.6314C14.8125 41.8409 15.224 42.2075 15.5325 42.6264L14.2982 43.7261C13.8867 43.2024 13.3724 42.8882 12.7552 42.8882C12.3952 42.8882 12.0866 42.9406 11.778 43.0977C11.4694 43.2548 11.2637 43.4642 11.1094 43.7784C10.9551 44.0926 10.8522 44.4068 10.8522 44.7734C10.8522 45.14 10.9036 45.5065 11.0579 45.7684C11.2122 46.0826 11.418 46.292 11.7266 46.4491C11.9837 46.6062 12.3437 46.711 12.7038 46.711C13.321 46.711 13.8353 46.4491 14.2982 45.9255L15.4811 47.0775C15.1725 47.4965 14.7096 47.8107 14.2467 48.0201C13.7324 48.2296 13.2181 48.3343 12.6009 48.3343H12.5495ZM21.9102 42.2598L19.9043 42.5216L20.5729 47.7583L18.7213 48.0201L18.0527 42.7835L15.9954 43.0453L15.7897 41.5267L21.7044 40.7412L21.9102 42.2598ZM27.1048 46.3968C26.4362 46.6062 25.7676 46.711 25.1504 46.6062C24.5332 46.5015 23.9674 46.2397 23.5046 45.8731C23.0417 45.4542 22.6816 44.9305 22.4759 44.3021C22.2702 43.6737 22.2187 43.0453 22.373 42.4169C22.5273 41.7885 22.7845 41.2648 23.196 40.7935C23.6074 40.3222 24.1732 39.9557 24.8418 39.7462C25.5104 39.5367 26.179 39.432 26.7962 39.5368C27.4134 39.6415 27.9792 39.9033 28.4421 40.2699C28.9049 40.6888 29.265 41.2125 29.4707 41.8409C29.6764 42.4693 29.7279 43.0977 29.5736 43.7261C29.4193 44.3545 29.1621 44.8781 28.7506 45.3494C28.3392 45.8207 27.7734 46.1873 27.1048 46.3968ZM26.5905 44.8781C26.8991 44.7734 27.1562 44.5639 27.362 44.3545C27.5677 44.0926 27.722 43.8308 27.7734 43.5166C27.8249 43.2024 27.7734 42.8358 27.6706 42.4693C27.5677 42.1027 27.362 41.8409 27.1048 41.5791C26.8476 41.3696 26.5905 41.2125 26.2819 41.1601C25.9733 41.1078 25.6647 41.1077 25.3561 41.2125C25.0475 41.3172 24.7904 41.5267 24.5846 41.7361C24.3789 41.998 24.2246 42.2598 24.1732 42.574C24.1217 42.8882 24.1732 43.2548 24.276 43.6213C24.3789 43.9879 24.5846 44.2497 24.8418 44.5116C25.099 44.721 25.3561 44.8781 25.6647 44.9305C25.9733 44.9829 26.2819 44.9829 26.5905 44.8781ZM34.0996 35.3998L37.4941 41.2648L35.8997 42.2075L33.2767 37.6516L31.0651 38.9607L33.6881 43.5166L32.0937 44.4592L28.6992 38.5942L34.0996 35.3474V35.3998ZM36.8255 37.4421L39.0371 35.7664L39.86 36.9184L37.6484 38.5942L36.8255 37.4421ZM46.289 31.0534L48.3978 33.0433L47.2148 34.3525L46.1862 33.4099L42.4831 37.4945L37.5456 32.8862L38.7799 31.4723L42.5859 35.0332L44.3346 33.0957L40.5286 29.5347L41.763 28.1208L45.569 31.6818L46.1862 31.001L46.289 31.0534ZM49.9922 25.5025L51.2265 26.3404L48.2435 30.8963L42.6888 27.1259L45.569 22.6747L46.8034 23.5126L44.9518 26.3404L45.8776 26.9688L47.5234 24.4552L48.7064 25.2407L47.0605 27.7543L48.0892 28.435L50.0436 25.5025H49.9922ZM48.3463 16.0765L54.4153 18.852L53.6439 20.5801L51.278 19.4804L50.1979 21.8892L52.5638 22.9889L51.7923 24.717L45.7233 21.9416L46.4948 20.2135L48.7578 21.2608L49.8379 18.852L47.5749 17.8046L48.3463 16.0765ZM54.6211 11.9919L53.9525 14.7674L55.084 15.6052L54.6211 17.4904L48.8092 12.9869L49.2207 11.1541L56.4212 9.79255L55.9583 11.7301L54.5696 11.9396L54.6211 11.9919ZM53.1295 12.2014L50.8665 12.568L52.7695 13.9295L53.181 12.2538L53.1295 12.2014Z" fill="#FF4803"/>
<path d="M14.9461 32.7929L14.013 31.8654L16.1131 29.7527L17.0462 30.6803L14.9461 32.7929Z" fill="#FF4803"/>
<path d="M37.0219 14.401L35.5691 6.81607L36.3334 6.04714L37.7862 13.632L37.0219 14.401ZM35.3331 11.9385C35.1147 12.1582 34.8724 12.3028 34.6064 12.3723C34.336 12.4376 34.0589 12.4277 33.7752 12.3426C33.4914 12.249 33.2225 12.0758 32.9683 11.8232C32.7142 11.5705 32.5416 11.3048 32.4506 11.0259C32.3638 10.7426 32.3523 10.4657 32.4159 10.1949C32.4795 9.92411 32.6205 9.67887 32.8389 9.45918C33.0573 9.23948 33.3017 9.09702 33.5721 9.03179C33.8424 8.96656 34.1174 8.97862 34.3968 9.06799C34.6762 9.15735 34.943 9.32835 35.1972 9.581C35.4513 9.83364 35.6261 10.1016 35.7214 10.3847C35.8125 10.6636 35.8262 10.9385 35.7625 11.2093C35.6946 11.4757 35.5515 11.7188 35.3331 11.9385ZM34.8032 11.4118C34.9445 11.2697 34.9998 11.0977 34.9692 10.8959C34.9342 10.6899 34.7961 10.467 34.5549 10.2272C34.3136 9.98736 34.092 9.85273 33.8901 9.82326C33.6838 9.78952 33.51 9.84372 33.3687 9.98588C33.2317 10.1237 33.1785 10.2978 33.2092 10.5082C33.2399 10.71 33.3759 10.9308 33.6171 11.1706C33.854 11.4061 34.0756 11.5407 34.2819 11.5744C34.4924 11.6039 34.6662 11.5497 34.8032 11.4118ZM40.5164 10.9889C40.3023 11.2043 40.0601 11.3489 39.7897 11.4227C39.5193 11.488 39.2444 11.4759 38.965 11.3865C38.6812 11.2929 38.4123 11.1198 38.1581 10.8671C37.904 10.6145 37.7314 10.3487 37.6403 10.0698C37.5493 9.79088 37.5356 9.51604 37.5992 9.24527C37.6671 8.97019 37.8081 8.72496 38.0222 8.50957C38.2449 8.28557 38.4914 8.14095 38.7618 8.07572C39.0322 8.01049 39.3071 8.02256 39.5866 8.11192C39.866 8.20128 40.1328 8.37228 40.387 8.62493C40.6411 8.87757 40.8159 9.14549 40.9112 9.42867C41.0022 9.70757 41.0159 9.98241 40.9523 10.2532C40.8844 10.5197 40.7391 10.7649 40.5164 10.9889ZM39.9866 10.4622C40.1279 10.3201 40.1832 10.1481 40.1525 9.94633C40.1176 9.74028 39.9795 9.51735 39.7382 9.27755C39.5013 9.04203 39.2797 8.9074 39.0734 8.87366C38.8672 8.83991 38.6934 8.89412 38.5521 9.03627C38.4151 9.17412 38.3619 9.34822 38.3926 9.55859C38.4232 9.76036 38.5592 9.98114 38.8004 10.2209C39.0417 10.4607 39.2654 10.5975 39.4717 10.6313C39.6779 10.6564 39.8495 10.6001 39.9866 10.4622Z" fill="#FF4803"/>
<path d="M25.6869 30.306C25.0785 30.9181 24.3946 31.4467 23.6352 31.892C22.8758 32.3206 22.1327 32.5987 21.4058 32.7263L20.6465 30.3712C21.223 30.2776 21.7992 30.0836 22.3751 29.7893C22.9593 29.4866 23.4765 29.1089 23.9265 28.6562C24.4349 28.1447 24.7343 27.6423 24.8248 27.1488C24.9153 26.6554 24.7803 26.2295 24.4198 25.8711C24.1934 25.6461 23.9338 25.5047 23.6411 25.4471C23.3483 25.3895 23.0058 25.4657 22.6136 25.6759C22.2297 25.8776 21.771 26.2468 21.2376 26.7834L18.9999 29.0345L14.495 23.6562L19.833 18.2863L21.4679 19.9114L16.8549 24.552L16.9744 22.5705L20.1958 26.3978L18.215 26.5291L20.0652 24.6678C20.932 23.7959 21.7494 23.2167 22.5176 22.9302C23.2858 22.6269 23.9961 22.5579 24.6486 22.7232C25.3011 22.8884 25.8873 23.2294 26.4071 23.7461C26.9269 24.2628 27.2798 24.872 27.4658 25.5736C27.6434 26.2669 27.5997 27.0235 27.3346 27.8435C27.0695 28.6468 26.5203 29.4676 25.6869 30.306Z" fill="#FF4803"/>
<path d="M33.8968 22.047C33.18 22.7681 32.3622 23.2386 31.4434 23.4587C30.5162 23.6704 29.5505 23.6023 28.5463 23.2542C27.5422 22.9061 26.558 22.2528 25.5939 21.2944C24.6297 20.3359 23.9706 19.3557 23.6165 18.3537C23.2624 17.3516 23.1927 16.3905 23.4073 15.4704C23.6135 14.5419 24.075 13.7171 24.7917 12.9961C25.5168 12.2667 26.3388 11.8003 27.2577 11.5969C28.1766 11.3769 29.138 11.4409 30.1422 11.789C31.1463 12.1371 32.1305 12.7903 33.0946 13.7487C34.0588 14.7072 34.7179 15.6874 35.072 16.6895C35.4261 17.6915 35.5 18.6568 35.2938 19.5853C35.0875 20.497 34.6219 21.3176 33.8968 22.047ZM32.1739 20.3343C32.5156 19.9906 32.715 19.5971 32.7722 19.1539C32.8377 18.7023 32.7317 18.1969 32.4542 17.6377C32.185 17.0701 31.7193 16.457 31.0569 15.7986C30.3946 15.1402 29.7788 14.6781 29.2096 14.4123C28.6487 14.1382 28.1427 14.0352 27.6915 14.1034C27.2486 14.1632 26.8563 14.365 26.5146 14.7088C26.1813 15.0441 25.9818 15.4376 25.9163 15.8892C25.8591 16.3324 25.9651 16.8378 26.2343 17.4054C26.5118 17.9647 26.9817 18.5735 27.6441 19.2319C28.3064 19.8903 28.918 20.3566 29.4789 20.6308C30.0481 20.8966 30.5542 20.9996 30.997 20.9397C31.4482 20.8715 31.8405 20.6697 32.1739 20.3343Z" fill="#FF4803"/>
</g>
<defs>
<clipPath id="clip0_12_594">
<rect width="60" height="52" fill="white"/>
</clipPath>
</defs>
</svg>
