<svg width="16" height="16" viewBox="0 0 16 16" fill="none" xmlns="http://www.w3.org/2000/svg"><path fill-rule="evenodd" clip-rule="evenodd" d="M2.84 2.84C2 3.7 2 5.04 2 7.76v.48c0 2.72 0 4.07.84 4.92.85.84 2.2.84 4.92.84h.48c2.72 0 4.07 0 4.92-.84.84-.85.84-2.2.84-4.92v-.48c0-2.72 0-4.07-.84-4.92C12.3 2 10.96 2 8.24 2h-.48c-2.72 0-4.07 0-4.92.84ZM4 5.65c.06 3.12 1.62 5 4.36 5h.15V8.86c1 .1 1.77.84 2.07 1.79H12a3.95 3.95 0 0 0-2.05-2.5 3.81 3.81 0 0 0 1.75-2.5h-1.29c-.28 1-1.1 1.9-1.9 1.98V5.65H7.22v3.46c-.8-.2-1.8-1.17-1.85-3.46H4Z" fill="#fff"></path></svg>